<svg height="471pt" viewBox="-15 0 471 471.384" width="471pt" xmlns="http://www.w3.org/2000/svg"><path d="m68.414062 63.382812h-20.222656v-16h20.222656c22.285157-.023437 44.261719-5.214843 64.203126-15.160156l7.152343 14.320313c-22.167969 11.046875-46.589843 16.8125-71.355469 16.839843zm0 0" fill="#b94137"/><path d="m66.769531 30.71875h-19.378906v-16h19.410156c18.410157.027344 36.648438-3.503906 53.71875-10.398438l10.710938-4.320312 5.984375 14.832031-10.710938 4.328125c-18.980468 7.664063-39.265625 11.589844-59.734375 11.558594zm0 0" fill="#dc4d41"/><path d="m16.191406 39.382812h32v432h-32zm0 0" fill="#f3af3e"/><g fill="#787d82"><path d="m16.191406 135.382812c-4.222656.007813-7.726562-3.269531-7.996094-7.484374-.273437-4.21875 2.78125-7.917969 6.972657-8.449219l31.542969-4.066407 47.570312-11.734374c4.277344-1.027344 8.578125 1.597656 9.632812 5.867187 1.050782 4.273437-1.546874 8.589844-5.808593 9.667969l-48 11.839844c-.292969.074218-.585938.128906-.882813.167968l-32 4.160156c-.339844.035157-.6875.046876-1.03125.03125zm0 0"/><path d="m96.191406 191.382812c-.664062 0-1.324218-.082031-1.96875-.246093l-47.511718-12-31.480469-3.777344c-4.386719-.523437-7.515625-4.507813-6.992188-8.894531.527344-4.386719 4.511719-7.519532 8.898438-6.992188l32 3.839844c.339843.039062.675781.101562 1.007812.191406l48 12.160156c3.84375 1.042969 6.335938 4.753907 5.84375 8.707032-.488281 3.953125-3.8125 6.941406-7.796875 7.011718zm0 0"/><path d="m96.191406 319.382812c-.5625 0-1.128906-.058593-1.679687-.175781l-48-10.277343-31.28125-3.722657c-4.386719-.523437-7.515625-4.507812-6.992188-8.894531.527344-4.386719 4.511719-7.519531 8.898438-6.992188l32 3.839844 48.71875 10.398438c4.003906.855468 6.714843 4.59375 6.289062 8.660156-.429687 4.070312-3.859375 7.164062-7.953125 7.164062zm0 0"/><path d="m16.191406 265.265625c-4.222656.007813-7.726562-3.273437-7.996094-7.488281-.273437-4.214844 2.78125-7.917969 6.972657-8.449219l31.40625-4.082031 47.433593-13.550782c2.785157-.90625 5.84375-.222656 7.972657 1.792969 2.132812 2.011719 2.992187 5.023438 2.242187 7.855469-.75 2.835938-2.984375 5.03125-5.832031 5.726562l-48 13.722657c-.378906.109375-.765625.195312-1.160156.246093l-32 4.160157c-.34375.042969-.691407.0625-1.039063.066406zm0 0"/><path d="m96.191406 455.382812c-.757812 0-1.511718-.105468-2.238281-.320312l-47.359375-13.855469-31.347656-3.757812c-4.386719-.527344-7.515625-4.511719-6.988282-8.898438.523438-4.386719 4.507813-7.515625 8.894532-6.992187l32 3.839844c.433594.054687.867187.144531 1.289062.265624l48 14.039063c3.820313 1.117187 6.242188 4.875 5.675782 8.816406-.5625 3.941407-3.941407 6.867188-7.925782 6.863281zm0 0"/><path d="m16.191406 397.503906c-4.222656.007813-7.726562-3.269531-7.996094-7.488281-.273437-4.214844 2.78125-7.914063 6.972657-8.449219l32-4.160156 47.425781-9.855469c2.820312-.640625 5.769531.292969 7.707031 2.441407 1.9375 2.148437 2.566407 5.175781 1.640625 7.917968-.921875 2.742188-3.257812 4.769532-6.101562 5.304688l-48 9.960937-32.59375 4.265625c-.347656.042969-.699219.066406-1.054688.0625zm0 0"/></g><path d="m432.3125 201.238281-48.121094-6.015625h-288v-96h288l48.121094-6.015625c3.007812-.375 5.96875.976563 7.648438 3.496094 1.683593 2.523437 1.796874 5.777344.296874 8.410156l-21.792968 38.144531c-1.40625 2.457032-1.40625 5.476563 0 7.933594l21.792968 38.136719c1.503907 2.632813 1.394532 5.890625-.289062 8.414063-1.683594 2.523437-4.648438 3.878906-7.65625 3.496093zm0 0" fill="#f55648"/><path d="m376.191406 171.222656c0-13.253906-10.746094-24-24-24h-32v48h32c13.253906 0 24-10.742187 24-24zm0 0" fill="#da922a"/><path d="m352.191406 147.222656c13.253906 0 24-10.742187 24-24 0-13.253906-10.746094-24-24-24h-32v48zm0 0" fill="#da922a"/><path d="m344.191406 147.222656c13.253906 0 24-10.742187 24-24 0-13.253906-10.746094-24-24-24h-32v96h32c13.253906 0 24-10.742187 24-24 0-13.253906-10.746094-24-24-24zm0 0" fill="#fbb540"/><path d="m320.191406 171.222656h-40v24h64c0-13.253906-10.746094-24-24-24zm0 0" fill="#b94137"/><path d="m320.191406 171.222656h-48v-48h48c13.253906 0 24 10.746094 24 24 0 13.257813-10.746094 24-24 24zm0 0" fill="#b94137"/><path d="m280.191406 123.222656h40c13.253906 0 24-10.742187 24-24h-64zm0 0" fill="#b94137"/><path d="m336.191406 147.222656c0-13.253906-10.746094-24-24-24 13.253906 0 24-10.742187 24-24h-64v24h-8v48h8v24h64c0-13.253906-10.746094-24-24-24 13.253906 0 24-10.742187 24-24zm0 0" fill="#e85244"/><path d="m280.191406 147.222656h-32v-48h32c13.253906 0 24 10.746094 24 24 0 13.257813-10.746094 24-24 24zm0 0" fill="#da922a"/><path d="m280.191406 195.222656h-32v-48h32c13.253906 0 24 10.746094 24 24 0 13.257813-10.746094 24-24 24zm0 0" fill="#da922a"/><path d="m272.191406 147.222656c13.253906 0 24-10.742187 24-24 0-13.253906-10.746094-24-24-24h-32v96h32c13.253906 0 24-10.742187 24-24 0-13.253906-10.746094-24-24-24zm0 0" fill="#fbb540"/><path d="m248.191406 171.222656h-40v24h64c0-13.253906-10.746094-24-24-24zm0 0" fill="#b94137"/><path d="m248.191406 171.222656h-40v-48h40c13.253906 0 24 10.746094 24 24 0 13.257813-10.746094 24-24 24zm0 0" fill="#b94137"/><path d="m208.191406 123.222656h40c13.253906 0 24-10.742187 24-24h-64zm0 0" fill="#b94137"/><path d="m264.191406 147.222656c0-13.253906-10.746094-24-24-24 13.253906 0 24-10.742187 24-24h-64v96h64c0-13.253906-10.746094-24-24-24 13.253906 0 24-10.742187 24-24zm0 0" fill="#e85244"/><path d="m16.191406 82.945312c9.847656 5.917969 22.15625 5.917969 32 0v-43.5625h-32zm0 0" fill="#d18d28"/><path d="m208.191406 147.222656c13.253906 0 24-10.742187 24-24 0-13.253906-10.746094-24-24-24h-8v48zm0 0" fill="#da922a"/><path d="m208.191406 195.222656h-8v-48h8c13.253906 0 24 10.746094 24 24 0 13.257813-10.746094 24-24 24zm0 0" fill="#da922a"/><path d="m200.191406 195.222656c13.253906 0 24-10.742187 24-24 0-13.253906-10.746094-24-24-24h-8v48zm0 0" fill="#f3af3e"/><path d="m200.191406 147.222656c13.253906 0 24-10.742187 24-24 0-13.253906-10.746094-24-24-24h-8v96h8c13.253906 0 24-10.742187 24-24 0-13.253906-10.746094-24-24-24zm0 0" fill="#fbb540"/><path d="m429.902344 123.222656h-29.710938v16h20.570313zm0 0" fill="#b94137"/><path d="m420.769531 155.222656h-20.578125v16h29.710938zm0 0" fill="#b94137"/><path d="m432.3125 331.480469-48.121094-6.015625h-288v-96h288l48.121094-6.015625c3.007812-.382813 5.972656.972656 7.65625 3.496093 1.683594 2.523438 1.792969 5.78125.289062 8.414063l-21.792968 38.136719c-1.40625 2.457031-1.40625 5.476562 0 7.9375l21.792968 38.140625c1.5 2.632812 1.386719 5.886719-.296874 8.410156-1.679688 2.519531-4.640626 3.875-7.648438 3.496094zm0 0" fill="#428dc5"/><path d="m376.191406 301.464844c0-13.253906-10.746094-24-24-24h-32v48h32c13.253906 0 24-10.746094 24-24zm0 0" fill="#da922a"/><path d="m352.191406 277.464844c13.253906 0 24-10.746094 24-24s-10.746094-24-24-24h-32v48zm0 0" fill="#da922a"/><path d="m344.191406 277.464844c13.253906 0 24-10.746094 24-24s-10.746094-24-24-24h-32v96h32c13.253906 0 24-10.746094 24-24s-10.746094-24-24-24zm0 0" fill="#fbb540"/><path d="m320.191406 301.464844h-40v24h64c0-13.253906-10.746094-24-24-24zm0 0" fill="#6fbbc6"/><path d="m320.191406 301.464844h-48v-48h48c13.253906 0 24 10.746094 24 24s-10.746094 24-24 24zm0 0" fill="#6fbbc6"/><path d="m280.191406 253.464844h40c13.253906 0 24-10.746094 24-24h-64zm0 0" fill="#6fbbc6"/><path d="m312.191406 253.464844c13.253906 0 24-10.746094 24-24h-64v24h-8v48h8v24h64c0-13.253906-10.746094-24-24-24 13.253906 0 24-10.746094 24-24s-10.746094-24-24-24zm0 0" fill="#a8d6da"/><path d="m280.191406 277.464844h-32v-48h32c13.253906 0 24 10.746094 24 24s-10.746094 24-24 24zm0 0" fill="#da922a"/><path d="m280.191406 325.464844h-32v-48h32c13.253906 0 24 10.746094 24 24s-10.746094 24-24 24zm0 0" fill="#da922a"/><path d="m296.191406 253.464844c0-13.253906-10.746094-24-24-24h-32v96h32c13.253906 0 24-10.746094 24-24s-10.746094-24-24-24c13.253906 0 24-10.746094 24-24zm0 0" fill="#fbb540"/><path d="m248.191406 301.464844h-40v24h64c0-13.253906-10.746094-24-24-24zm0 0" fill="#6fbbc6"/><path d="m248.191406 301.464844h-40v-48h40c13.253906 0 24 10.746094 24 24s-10.746094 24-24 24zm0 0" fill="#6fbbc6"/><path d="m208.191406 253.464844h40c13.253906 0 24-10.746094 24-24h-64zm0 0" fill="#6fbbc6"/><path d="m240.191406 253.464844c13.253906 0 24-10.746094 24-24h-64v96h64c0-13.253906-10.746094-24-24-24 13.253906 0 24-10.746094 24-24s-10.746094-24-24-24zm0 0" fill="#a8d6da"/><path d="m208.191406 277.464844c13.253906 0 24-10.746094 24-24s-10.746094-24-24-24h-8v48zm0 0" fill="#da922a"/><path d="m208.191406 325.464844h-8v-48h8c13.253906 0 24 10.746094 24 24s-10.746094 24-24 24zm0 0" fill="#da922a"/><path d="m200.191406 277.464844c13.253906 0 24-10.746094 24-24s-10.746094-24-24-24h-8v96h8c13.253906 0 24-10.746094 24-24s-10.746094-24-24-24zm0 0" fill="#fbb540"/><path d="m429.902344 253.464844h-29.710938v16h20.570313zm0 0" fill="#277baa"/><path d="m420.769531 285.464844h-20.578125v16h29.710938zm0 0" fill="#277baa"/><path d="m432.3125 463.320312-48.121094-6.015624h-288v-96h288l48.121094-6.015626c3.007812-.378906 5.96875.976563 7.648438 3.496094 1.683593 2.519532 1.796874 5.773438.296874 8.40625l-21.792968 38.144532c-1.40625 2.457031-1.40625 5.476562 0 7.9375l21.792968 38.109374c1.519532 2.632813 1.414063 5.902344-.269531 8.433594-1.683593 2.53125-4.660156 3.890625-7.675781 3.503906zm0 0" fill="#38c1b4"/><path d="m376.191406 433.304688c0-13.253907-10.746094-24-24-24h-32v48h32c13.253906 0 24-10.746094 24-24zm0 0" fill="#da922a"/><path d="m352.191406 409.304688c13.253906 0 24-10.746094 24-24 0-13.253907-10.746094-24-24-24h-32v48zm0 0" fill="#da922a"/><path d="m344.191406 409.304688c13.253906 0 24-10.746094 24-24 0-13.253907-10.746094-24-24-24h-32v96h32c13.253906 0 24-10.746094 24-24 0-13.253907-10.746094-24-24-24zm0 0" fill="#fbb540"/><path d="m320.191406 433.304688h-40v24h64c0-13.253907-10.746094-24-24-24zm0 0" fill="#34b2a6"/><path d="m320.191406 433.304688h-48v-48h48c13.253906 0 24 10.746093 24 24 0 13.253906-10.746094 24-24 24zm0 0" fill="#34b2a6"/><path d="m280.191406 385.304688h40c13.253906 0 24-10.746094 24-24h-64zm0 0" fill="#34b2a6"/><path d="m336.191406 409.304688c0-13.253907-10.746094-24-24-24 13.253906 0 24-10.746094 24-24h-64v24h-8v48h8v24h64c0-13.253907-10.746094-24-24-24 13.253906 0 24-10.746094 24-24zm0 0" fill="#41dfd0"/><path d="m280.191406 409.304688h-32v-48h32c13.253906 0 24 10.746093 24 24 0 13.253906-10.746094 24-24 24zm0 0" fill="#da922a"/><path d="m280.191406 457.304688h-32v-48h32c13.253906 0 24 10.746093 24 24 0 13.253906-10.746094 24-24 24zm0 0" fill="#da922a"/><path d="m272.191406 409.304688c13.253906 0 24-10.746094 24-24 0-13.253907-10.746094-24-24-24h-32v96h32c13.253906 0 24-10.746094 24-24 0-13.253907-10.746094-24-24-24zm0 0" fill="#fbb540"/><path d="m248.191406 433.304688h-40v24h64c0-13.253907-10.746094-24-24-24zm0 0" fill="#34b2a6"/><path d="m248.191406 433.304688h-40v-48h40c13.253906 0 24 10.746093 24 24 0 13.253906-10.746094 24-24 24zm0 0" fill="#34b2a6"/><path d="m208.191406 385.304688h40c13.253906 0 24-10.746094 24-24h-64zm0 0" fill="#34b2a6"/><path d="m264.191406 409.304688c0-13.253907-10.746094-24-24-24 13.253906 0 24-10.746094 24-24h-64v96h64c0-13.253907-10.746094-24-24-24 13.253906 0 24-10.746094 24-24zm0 0" fill="#41dfd0"/><path d="m208.191406 409.304688c13.253906 0 24-10.746094 24-24 0-13.253907-10.746094-24-24-24h-8v48zm0 0" fill="#da922a"/><path d="m208.191406 457.304688h-8v-48h8c13.253906 0 24 10.746093 24 24 0 13.253906-10.746094 24-24 24zm0 0" fill="#da922a"/><path d="m200.191406 409.304688c13.253906 0 24-10.746094 24-24 0-13.253907-10.746094-24-24-24h-8v96h8c13.253906 0 24-10.746094 24-24 0-13.253907-10.746094-24-24-24zm0 0" fill="#fbb540"/><path d="m429.902344 385.304688h-29.710938v16h20.570313zm0 0" fill="#34b2a6"/><path d="m420.769531 417.304688h-20.578125v16h29.710938zm0 0" fill="#34b2a6"/><path d="m64.191406 39.382812c0 17.675782-14.328125 32-32 32s-32-14.324218-32-32c0-17.671874 14.328125-32 32-32s32 14.328126 32 32zm0 0" fill="#f3af3e"/><path d="m96.191406 99.222656h104v96h-104zm0 0" fill="#f55648"/><path d="m168.191406 147.222656c0 13.257813-10.746094 24-24 24s-24-10.742187-24-24c0-13.253906 10.746094-24 24-24s24 10.746094 24 24zm0 0" fill="#d9d9d9"/><path d="m144.191406 155.265625c-4.417968 0-8-3.582031-8-8s3.582032-8 8-8c4.417969 0 8 3.582031 8 8-.035156 4.402344-3.59375 7.964844-8 8zm0-8" fill="#787d82"/><path d="m96.191406 229.464844h104v96h-104zm0 0" fill="#428dc5"/><path d="m168.191406 277.464844c0 13.253906-10.746094 24-24 24s-24-10.746094-24-24 10.746094-24 24-24 24 10.746094 24 24zm0 0" fill="#d9d9d9"/><path d="m144.191406 285.503906c-4.414062 0-7.992187-3.574218-8-7.988281-.007812-4.410156 3.5625-7.996094 7.972656-8.011719 4.414063-.015625 8.007813 3.546875 8.027344 7.960938-.011718 4.417968-3.582031 8.003906-8 8.039062zm0-8.039062" fill="#787d82"/><path d="m96.191406 361.304688h104v96h-104zm0 0" fill="#38c1b4"/><path d="m168.191406 409.304688c0 13.253906-10.746094 24-24 24s-24-10.746094-24-24c0-13.253907 10.746094-24 24-24s24 10.746093 24 24zm0 0" fill="#d9d9d9"/><path d="m144.191406 417.34375c-3.257812.015625-6.203125-1.9375-7.460937-4.945312-1.253907-3.007813-.566407-6.476563 1.738281-8.78125 2.304688-2.304688 5.769531-2.988282 8.777344-1.734376 3.007812 1.253907 4.960937 4.203126 4.945312 7.460938-.035156 4.402344-3.59375 7.964844-8 8zm0-8" fill="#787d82"/></svg>