<?xml version="1.0" encoding="iso-8859-1"?>
<!-- Generator: Adobe Illustrator 19.0.0, SVG Export Plug-In . SVG Version: 6.00 Build 0)  -->
<svg xmlns="http://www.w3.org/2000/svg" xmlns:xlink="http://www.w3.org/1999/xlink" version="1.1" id="Capa_1" x="0px" y="0px" viewBox="0 0 462.5 462.5" style="enable-background:new 0 0 462.5 462.5;" xml:space="preserve" width="512" height="512">
<g>
	<rect x="110.14" y="54.26" style="fill:#FFC743;" width="40" height="60"/>
	<path style="fill:#FFB914;" d="M441.764,76.757h-180.03v15h180.03c4.143,0,7.5-3.357,7.5-7.5S445.906,76.757,441.764,76.757z"/>
	<rect x="140.14" y="54.26" style="fill:#FFE3A1;" width="131.59" height="60"/>
	<path style="fill:#FFB914;" d="M441.764,106.757H111.556l-57.682-22.5l57.682-22.5h330.208c4.143,0,7.5-3.357,7.5-7.5   s-3.357-7.5-7.5-7.5h-333.03L30.736,77.182v14.15l77.998,30.425h333.03c4.143,0,7.5-3.357,7.5-7.5S445.906,106.757,441.764,106.757   z"/>
	<rect x="110.14" y="154.26" style="fill:#FFB8B4;" width="40" height="75"/>
	<rect x="140.14" y="154.26" style="fill:#FF382E;" width="228.55" height="75"/>
	<path style="fill:#FF8882;" d="M449.264,154.257v-7.5h-340.85l-77.678,37.875v14.25l77.678,37.875h340.85v-7.5   c0-15.634-8.014-29.432-20.149-37.5C441.25,183.688,449.264,169.891,449.264,154.257z M368.69,221.757H111.876l-61.527-30   l61.527-30H368.69V221.757z"/>
	<rect x="110.14" y="263.745" style="fill:#68E1F2;" width="40" height="75"/>
	<rect x="140.14" y="263.745" style="fill:#0B7786;" width="228.55" height="75"/>
	<path style="fill:#19ABBF;" d="M449.264,263.742v-7.5h-340.85l-77.678,37.875v14.25l77.678,37.875h340.85v-7.5   c0-15.634-8.014-29.432-20.149-37.5C441.25,293.173,449.264,279.375,449.264,263.742z M368.69,331.242H111.876l-61.527-30   l61.527-30H368.69V331.242z"/>
	<path style="fill:#B2AFAF;" d="M25.736,20v435c0,4.143,3.358,7.5,7.5,7.5s7.5-3.357,7.5-7.5V20H25.736z"/>
	<circle style="fill:#655F5E;" cx="33.236" cy="20" r="20"/>
</g>















</svg>
