<svg enable-background="new 0 0 110 110" height="512" viewBox="0 0 110 110" width="512" xmlns="http://www.w3.org/2000/svg"><path d="m72.3944321 76.2837143c.0325928-1.4340668-1.1228027-2.6133041-2.5573044-2.6099243l-53.0701523-.0709915c-.7302151.0017548-1.3257113.5853271-1.3422995 1.3152161-.016552.7283249.5493574 1.3375778 1.2769747 1.3746567l53.0115509 2.4816742c1.4358082.0731887 2.6485691-1.0534211 2.6812306-2.4906312z" fill="#963e25"/><path d="m22.2549496 57.1192207c.9322128-1.0902214 2.5796013-1.1982117 3.6461525-.238903l39.5885086 35.3439636c.5428925.4883499.5973511 1.320343.1228867 1.8752289-.4734497.5536957-1.3014526.6301804-1.868309.172493l-41.1527291-33.5087471c-1.1186028-.9031258-1.2707672-2.551426-.3365097-3.6440354z" fill="#d6683d"/><g enable-background="new"><path d="m75.4142685 17.1058712-.0609512 21.4998417c-1.0474319-.6047325-2.7460022-.6047363-3.7865372-.0000458l.0609512-21.4998436c1.040535-.6046905 2.7391052-.6046867 3.7865372.0000477z" fill="#344d5b"/><path d="m86.0871277 23.2678509-.0609512 21.4998417-10.6728592-6.1619797.0609512-21.4998417z" fill="#344d5b"/><path d="m78.7895203 23.9075317-.0609513 21.4998436-4.4557419-2.572525.0609513-21.4998417z" fill="#fed35b"/><path d="m74.2728271 42.8348503c-.4378281-.2527771-1.1461716-.2507973-1.577858.0000725.0178604-6.3298874.0359573-12.6591187.0538254-18.9890118l.0071259-2.5108261c.431694-.2508755 1.1400299-.2528534 1.577858-.0000763-.0178604 6.3297043-.0359726 12.6587353-.053833 18.9884357-.0021363.7534218-.0049897 1.757988-.0071183 2.511406z" fill="#fed35b"/><path d="m71.6277313 17.1058235-.0609512 21.4998436-10.6069603 6.1640892.0609512-21.4998417z" fill="#344d5b"/><path d="m72.7559204 21.3350811-.0609512 21.4998417-4.4266739 2.5725021.0609512-21.4998436z" fill="#fed35b"/><path d="m86.8763428 24.3722305-.0609512 21.4998474c.0011368-.3997231-.2621155-.8000641-.7892151-1.1043854l.0609512-21.4998417c.5270996.3043195.7903519.7046624.7892151 1.1043797z" fill="#344d5b"/><path d="m78.728569 45.4073753c.0203323-7.1668663.0407257-14.3329754.0609512-21.4998417.2198868.1269493.3290634.2936344.3285828.4598999l-.0609589 21.4998455c.0004883-.1662673-.1086883-.3329544-.3285751-.4599037z" fill="#fed35b"/><path d="m67.9418335 45.8640556.0609512-21.4998379c.0004654-.1653175.1094742-.3305378.3264618-.4566364l-.0609512 21.4998436c-.2169876.1260987-.3259964.291317-.3264618.4566307z" fill="#fed35b"/><path d="m60.1830597 45.8586655.0609474-21.4998417c.0011253-.3945675.2598686-.7885227.7767639-1.0889091l-.0609512 21.4998417c-.5168953.3003883-.7756386.6943435-.7767601 1.0889091z" fill="#344d5b"/><path d="m79.1180954 24.3674431-.0609589 21.4998436c-.0004578.1647949-.1086426.329174-.3235321.454052l.0609589-21.4998417c.2148819-.124878.3230667-.289259.3235321-.4540539z" fill="#dd584d"/><path d="m67.9418335 45.8640671.0609512-21.4998417c-.000473.1661949.108757.3324852.3282547.4592113l-.0609512 21.4998436c-.2194977-.126728-.3287277-.2930183-.3282547-.4592132z" fill="#dd584d"/><path d="m86.8763428 24.3722305-.0609512 21.4998474c-.0011139.3945694-.2598572.7885323-.7767563 1.0889168l.0609512-21.4998417c.5168991-.3003864.7756424-.6943493.7767563-1.0889225z" fill="#fed35b"/><path d="m72.7867661 27.3959522-.0609513 21.4998417-4.4557266-2.5725136.0609512-21.4998436z" fill="#dd584d"/><path d="m71.7061157 31.625185-.0609588 21.4998417-10.6728592-6.1619797.0609512-21.4998417z" fill="#fed35b"/><g fill="#dd584d"><path d="m78.7945633 24.821497-.0609589 21.4998417-4.4266662 2.5725021.0609512-21.4998436z"/><path d="m74.3678894 27.3939972-.0609512 21.4998436c-.4351349.2528687-1.1432953.254734-1.5811234.0019531l.0609512-21.4998417c.4378281.2527809 1.1459885.2509156 1.5811234-.001955z"/><path d="m78.789505 23.9075432c.4378281.2527809.4367371.6630859.0050583.9139538l-4.4266739 2.5725002c-.4351349.2528706-1.1432953.2547359-1.5811234.001955l-4.4557266-2.5725155c-.4378281-.252779-.4369278-.6629791-.0017929-.9158516l4.4266739-2.5725002c.4316864-.2508678 1.1400299-.2528362 1.577858-.0000572z"/></g><g fill="#fed35b"><path d="m86.0995865 25.461153-.0609512 21.4998417-10.6069642 6.164093.0609513-21.4998417z"/><path d="m75.4926224 31.625246-.0609512 21.4998417c-1.0405273.6046906-2.7391052.60466-3.7865143-.000061l.0609589-21.4998417c1.0474014.6047192 2.7459792.6047535 3.7865066.000061z"/><path d="m86.0871277 23.2678509c1.0474091.6047211 1.0529938 1.5886116.0124588 2.1933022l-10.6069641 6.164093c-1.0405273.6046925-2.7391052.6046581-3.7865067-.000061l-10.6728668-6.1619797c-1.0474281-.6047344-1.0530128-1.5885983-.0124779-2.1932907l10.6069603-6.1640911c1.040535-.6046906 2.7391052-.6046867 3.7865372.0000477zm-11.7192459 4.1261368 4.4266663-2.5725002c.431694-.2508717.4327927-.6611767-.0050278-.9139557l-4.4557419-2.5725231c-.4378281-.2527771-1.1461639-.2507992-1.577858.0000725l-4.4266739 2.5725002c-.4351349.2528725-.4360352.6630611.0017929.9158382l4.4557419 2.5725231c.4378204.252779 1.1459656.2509174 1.5811005-.001955"/></g><path d="m87.0293503 26.1332035-10.6069565 6.1641064c-1.8603134 1.0810127-3.9412537.8939514-5.8171463-.1891174l-10.672863-6.1620483-.2137833-.1068916c-.9444351-.5452709-1.5869179-.7743225-1.5848885-1.4890728l-.0609474 21.4999409c-.0020294.7147484.4694481 1.4310455 1.413887 1.9763145l10.6728554 6.1620483c1.8759003 1.0830727 4.9105606 1.0830727 6.770874.0018044l10.6069565-6.1641083c.9249878-.5375443 1.3876114-1.2407036 1.3896103-1.9451523l.0609512-21.499939c-.0019988.7044467-1.0335616 1.2145729-1.9585494 1.7521152z" fill="#293b44"/><path d="m87.5727921 22.40448c1.8759155 1.0830593 1.8891144 2.8389435.0255051 3.9219551l-10.6069565 6.164093c-1.8603287 1.0811005-4.8949738 1.081089-6.7708893-.0019722l-10.672863-6.1619778c-1.8759155-1.0830612-1.8858528-2.8408413-.025528-3.9219437l10.6069603-6.1640911c1.8636093-1.0830126 4.8949966-1.0811033 6.7709045.0019569zm-12.0801697 9.220766 10.6069641-6.164093c1.040535-.6046906 1.0349503-1.5885811-.0124588-2.1933022l-10.6728592-6.1619797c-1.0474319-.6047344-2.7460022-.6047382-3.7865372-.0000477l-10.6069603 6.1640912c-1.040535.6046925-1.0349503 1.5885563.0124779 2.1932907l10.6728668 6.1619797c1.0474015.6047192 2.7459793.6047535 3.7865067.000061" fill="#304551"/></g><g enable-background="new"><path d="m51.3821487 27.4166203-.0609512 21.4998417c-1.0474281-.6047325-2.7460022-.6047401-3.7865372-.0000458l.060955-21.4998436c1.0405312-.6046925 2.7391053-.6046868 3.7865334.0000477z" fill="#344d5b"/><path d="m62.0550117 33.5786018-.0609512 21.4998398-10.672863-6.1619797.0609512-21.4998416z" fill="#344d5b"/><path d="m54.7574043 34.2182808-.060955 21.4998436-4.4557419-2.572525.060955-21.4998417z" fill="#fed35b"/><path d="m50.2407074 53.1455994c-.4378242-.2527771-1.1461639-.2507973-1.577858.0000725.0178642-6.3298874.0359612-12.6591187.0538292-18.9890137l.007122-2.5108242c.431694-.2508755 1.1400375-.2528534 1.5778618-.0000763-.0178642 6.3297024-.0359726 12.6587353-.053833 18.9884357-.0021362.7534218-.0049896 1.757988-.007122 2.511406z" fill="#fed35b"/><path d="m47.5956154 27.4165726-.0609551 21.4998436-10.6069564 6.1640892.0609512-21.4998398z" fill="#344d5b"/><path d="m48.7238007 31.6458302-.0609513 21.4998416-4.42667 2.5725022.0609512-21.4998436z" fill="#fed35b"/><path d="m62.8442307 34.6829796-.0609589 21.4998474c.0011368-.3997231-.2621155-.8000641-.7892113-1.1043854l.0609512-21.4998398c.5270958.3043175.7903519.7046585.789219 1.1043778z" fill="#344d5b"/><path d="m54.6964493 55.7181244c.0203362-7.1668663.0407257-14.3329735.0609512-21.4998436.2198868.1269531.3290634.2936363.3285866.4598999l-.060955 21.4998474c.0004806-.1662674-.108696-.3329544-.3285828-.4599037z" fill="#fed35b"/><path d="m43.9097176 56.1748009.0609474-21.499836c.000473-.1653175.109478-.3305359.3264656-.4566345l-.0609512 21.4998436c-.2169877.1260986-.3259926.291317-.3264618.4566269z" fill="#fed35b"/><path d="m36.1509438 56.1694145.0609474-21.4998398c.0011253-.3945694.2598686-.7885246.7767639-1.0889091l-.0609512 21.4998398c-.5168953.3003883-.7756424.6943397-.7767601 1.0889091z" fill="#344d5b"/><path d="m55.0859833 34.6781921-.0609589 21.4998436c-.0004616.1647911-.1086502.329174-.3235321.454052l.0609512-21.4998436c.2148819-.1248741.3230706-.289257.3235398-.454052z" fill="#dd584d"/><path d="m43.9097176 56.1748161.0609474-21.4998436c-.0004692.1661949.1087608.332489.3282585.4592133l-.060955 21.4998436c-.2194939-.1267281-.328724-.2930184-.3282509-.4592133z" fill="#dd584d"/><path d="m62.8442307 34.6829796-.0609589 21.4998474c-.0011139.3945694-.2598572.7885323-.7767563 1.0889168l.060955-21.4998398c.5168953-.3003883.7756386-.6943512.7767602-1.0889244z" fill="#fed35b"/><path d="m48.7546501 37.7067032-.060955 21.4998398-4.4557267-2.5725136.0609551-21.4998436z" fill="#dd584d"/><path d="m47.673996 41.9359322-.0609513 21.4998436-10.672863-6.1619797.0609513-21.4998436z" fill="#fed35b"/><g fill="#dd584d"><path d="m54.7624435 35.1322441-.0609512 21.4998436-4.4266739 2.5725021.0609551-21.4998436z"/><path d="m50.3357735 37.7047462-.060955 21.4998436c-.4351311.2528687-1.1432953.254734-1.5811234.0019531l.060955-21.4998398c.4378281.2527772 1.1459885.2509156 1.5811234-.0019569z"/><path d="m54.7573853 34.2182922c.4378281.2527809.4367447.6630859.0050583.9139519l-4.4266701 2.5725021c-.4351349.2528725-1.1432953.254734-1.5811234.0019569l-4.4557266-2.5725174c-.4378281-.2527809-.436924-.6629791-.0017929-.9158516l4.4266739-2.5725002c.4316826-.2508678 1.1400261-.2528362 1.5778542-.0000572z"/></g><g fill="#fed35b"><path d="m62.0674706 35.771904-.0609551 21.4998398-10.6069565 6.164093.0609513-21.4998436z"/><path d="m51.4605103 41.9359932-.0609513 21.4998436c-1.040535.6046906-2.739109.60466-3.7865143-.000061l.0609512-21.4998436c1.0474091.604721 2.7459794.6047554 3.7865144.000061z"/><path d="m62.0550117 33.5786018c1.0474091.6047211 1.05299 1.5886078.0124588 2.1933022l-10.6069603 6.1640892c-1.040535.6046944-2.7391052.60466-3.7865143-.000061l-10.672863-6.1619797c-1.0474281-.6047325-1.0530128-1.5885963-.0124779-2.1932869l10.6069603-6.164093c1.0405312-.6046925 2.7391052-.6046867 3.7865334.0000477zm-11.7192459 4.126133 4.4266701-2.5724983c.4316902-.2508736.4327927-.6611786-.0050316-.9139557l-4.4557419-2.5725231c-.4378242-.2527771-1.1461678-.2507992-1.5778618.0000725l-4.4266701 2.5725002c-.4351349.2528725-.4360313.6630592.0017929.9158363l4.4557419 2.572525c.4378243.2527771 1.1459657.2509156 1.5811005-.0019569"/></g><path d="m63.406353 36.2344398-10.6069565 6.1641083c-1.8603134 1.0810089-4.8949738 1.0810089-6.7708702-.0020599l-10.672863-6.1620483.6597748.1336136c-.9444389-.545269-1.9158707-.9923744-1.9138412-1.7071266l-.0609474 21.4999428c-.0020294.7147484.4694481 1.4310455 1.4138832 1.9763145l10.672863 6.1620483c1.8758965 1.0830688 4.9105568 1.0830688 6.7708702.0018005l10.6069565-6.1641045c.9249916-.5375443 1.3876152-1.2407036 1.3896065-1.9451523l.0609512-21.499939c-.001999.704445-.6244355 1.0050584-1.5494271 1.5426026z" fill="#304551"/><path d="m63.5406723 32.715229c1.8759155 1.0830574 1.889122 2.8389435.0255089 3.9219551l-10.6069603 6.1640892c-1.8603249 1.0811043-4.8949738 1.0810928-6.7708855-.0019684l-10.672863-6.1619797c-1.8759155-1.0830574-1.8858528-2.8408394-.025528-3.9219437l10.6069603-6.1640892c1.8636093-1.0830135 4.8949928-1.0811043 6.7709084.001955zm-12.080162 9.2207642 10.6069603-6.1640892c1.0405312-.6046944 1.0349503-1.5885811-.0124588-2.1933022l-10.672863-6.1619816c-1.0474281-.6047344-2.7460022-.6047401-3.7865334-.0000477l-10.6069603 6.164093c-1.040535.6046906-1.0349503 1.5885544.0124779 2.1932869l10.672863 6.1619797c1.047409.6047211 2.7459793.6047555 3.7865143.0000611" fill="#293b44"/></g><g enable-background="new"><path d="m81.0020447 38.4436378-.0609512 21.4998436c-1.0474319-.6047325-2.7460098-.6047401-3.7865372-.0000458l.0609512-21.4998436c1.040535-.6046905 2.7391052-.6046867 3.7865372.0000458z" fill="#344d5b"/><path d="m91.6749039 44.6056175-.0609513 21.4998436-10.6728592-6.1619797.0609513-21.4998436z" fill="#344d5b"/><path d="m84.3772964 45.2453003-.0609512 21.4998398-4.4557419-2.5725174.0609513-21.4998474z" fill="#fed35b"/><path d="m79.8606033 64.1726227c-.4378281-.2527809-1.1461716-.2508049-1.5778656.0000687.017868-6.3298874.035965-12.6591187.053833-18.9890137l.0071182-2.5108223c.431694-.2508774 1.1400375-.2528572 1.5778656-.0000801-.0178604 6.3297043-.0359726 12.6587372-.053833 18.9884377-.0021362.7534217-.0049896 1.7579879-.0071182 2.5114097z" fill="#fed35b"/><path d="m77.2155075 38.4435921-.0609512 21.4998436-10.6069641 6.164093.0609512-21.4998436z" fill="#344d5b"/><path d="m78.3436966 42.6728477-.0609589 21.4998436-4.4266662 2.5725022.0609512-21.4998436z" fill="#fed35b"/><path d="m92.464119 45.7099991-.0609512 21.4998474c.0011368-.3997192-.2621231-.8000641-.7892151-1.1043854l.0609512-21.4998436c.5270919.3043213.7903518.7046623.7892151 1.1043816z" fill="#344d5b"/><path d="m84.3163452 66.7451401c.0203323-7.1668625.0407181-14.3329697.0609512-21.4998398.2198868.1269531.3290634.2936363.3285828.4598999l-.0609589 21.4998474c.0004807-.1662674-.1086959-.3329544-.3285751-.4599075z" fill="#fed35b"/><path d="m73.5296097 67.2018204.0609436-21.499836c.000473-.1653175.1094818-.3305359.3264694-.4566345l-.0609512 21.4998436c-.2169876.1260986-.3259964.2913132-.3264618.4566269z" fill="#fed35b"/><path d="m65.7708359 67.196434.0609436-21.4998398c.0011292-.3945694.2598724-.7885246.7767639-1.0889091l-.0609512 21.4998436c-.5168915.3003845-.7756348.6943359-.7767563 1.0889053z" fill="#344d5b"/><path d="m84.7058716 45.7052116-.0609589 21.4998436c-.0004578.1647949-.1086426.3291779-.3235321.4540482l.0609512-21.4998398c.2148896-.1248741.3230744-.289257.3235398-.454052z" fill="#dd584d"/><path d="m73.5296097 67.2018356.0609436-21.4998436c-.0004654.1661949.1087646.332489.3282623.4592133l-.0609512 21.4998436c-.2194977-.1267243-.3287277-.2930145-.3282547-.4592133z" fill="#dd584d"/><path d="m92.464119 45.7099991-.0609512 21.4998474c-.0011139.3945694-.2598648.7885284-.7767563 1.0889206l.0609512-21.4998436c.5168915-.3003883.7756424-.6943512.7767563-1.0889244z" fill="#fed35b"/><path d="m78.3745422 48.7337227-.0609512 21.4998436-4.4557266-2.5725174.0609512-21.4998436z" fill="#dd584d"/><path d="m77.2938843 52.9629517-.0609513 21.4998474-10.6728591-6.1619797.0609512-21.4998474z" fill="#fed35b"/><g fill="#dd584d"><path d="m84.3823318 46.1592636-.0609512 21.4998398-4.4266662 2.5725021.0609512-21.4998398z"/><path d="m79.9556656 48.7317657-.0609512 21.4998398c-.4351349.2528763-1.1432953.2547379-1.5811234.0019608l.0609512-21.4998436c.4378281.2527771 1.1459885.2509155 1.5811234-.001957z"/><path d="m84.3772812 45.2453117c.4378204.2527809.4367371.6630859.0050507.9139519l-4.4266663 2.5725021c-.4351349.2528725-1.1432953.254734-1.5811234.0019569l-4.4557266-2.5725174c-.4378281-.2527809-.4369278-.6629791-.0017929-.9158516l4.4266739-2.5724983c.4316864-.2508698 1.1400299-.2528381 1.5778503-.000061z"/></g><g fill="#fed35b"><path d="m91.6873627 46.7989235-.0609513 21.4998436-10.6069641 6.1640854.0609513-21.4998398z"/><path d="m81.0803986 52.9630127-.0609512 21.4998398c-1.040535.6046982-2.7391052.6046677-3.7865143-.0000534l.0609512-21.4998474c1.047409.604721 2.7459869.6047515 3.7865143.000061z"/><path d="m91.6749039 44.6056175c1.0474091.6047211 1.0529938 1.5886116.0124588 2.193306l-10.6069641 6.1640892c-1.0405273.6046906-2.7391052.60466-3.7865143-.000061l-10.6728592-6.1619797c-1.0474319-.6047325-1.053009-1.5885963-.0124817-2.1932869l10.6069641-6.164093c1.040535-.6046906 2.7391052-.6046867 3.7865372.0000458zm-11.7192459 4.1261368 4.4266663-2.5724983c.431694-.2508736.4327927-.6611786-.0050278-.9139557l-4.4557419-2.572525c-.4378281-.2527771-1.1461716-.2507973-1.577858.0000725l-4.4266739 2.5725021c-.4351349.2528725-.4360352.6630592.0017929.9158363l4.4557419 2.572525c.4378204.2527771 1.1459656.2509156 1.5811005-.0019569"/></g><path d="m93.2023239 47.2175293-10.6069565 6.1641083c-1.8603134 1.0810089-4.8949738 1.0810089-6.7708664-.0020599l-10.6728668-6.1620483.0451508.1068916c-.9444351-.5452728-1.4773254-.9217224-1.475296-1.6364746l-.0609474 21.4999428c-.0020294.7147522.4694481 1.4310455 1.4138832 1.9763184l10.6728592 6.1620407c1.8759003 1.0830765 4.9105606 1.0830765 6.770874.0018082l10.6069565-6.1641083c.9249878-.5375443 1.3876114-1.2407074 1.3896103-1.9451523l.0609436-21.499939c-.0019913.7044448-.4483567.9611281-1.3733445 1.4986724z" fill="#344d5b"/><path d="m93.1605682 43.7422485c1.8759079 1.0830574 1.8891144 2.8389435.0255051 3.9219551l-10.6069641 6.1640892c-1.860321 1.0811043-4.8949661 1.0810928-6.7708817-.0019684l-10.6728668-6.1619797c-1.8759117-1.0830574-1.885849-2.8408394-.025528-3.9219437l10.6069641-6.1640892c1.8636093-1.0830116 4.894989-1.0811043 6.7709045.0019569zm-12.0801696 9.2207642 10.6069641-6.1640892c1.040535-.6046944 1.0349503-1.5885849-.0124588-2.193306l-10.6728592-6.1619797c-1.0474319-.6047325-2.7460022-.6047363-3.7865372-.0000458l-10.6069641 6.164093c-1.0405273.6046906-1.0349503 1.5885544.0124817 2.1932869l10.6728592 6.1619797c1.047409.6047211 2.7459869.6047516 3.7865143.0000611" fill="#304551"/></g></svg>